<?xml version="1.0" encoding="UTF-8"?>
<svg width="147px" height="45px" viewBox="0 0 147 45" version="1.1" xmlns="http://www.w3.org/2000/svg" xmlns:xlink="http://www.w3.org/1999/xlink">
    <title>wordmark-white</title>
    <defs>
        <linearGradient x1="0%" y1="49.9999776%" x2="100.000473%" y2="49.9999776%" id="linearGradient-1">
            <stop stop-color="#3B83FE" offset="0%"></stop>
            <stop stop-color="#D786F2" offset="100%"></stop>
        </linearGradient>
        <linearGradient x1="0%" y1="50.0002979%" x2="100.00102%" y2="50.0002979%" id="linearGradient-2">
            <stop stop-color="#3B83FE" offset="0%"></stop>
            <stop stop-color="#D786F2" offset="100%"></stop>
        </linearGradient>
        <linearGradient x1="0.000100596875%" y1="50.0000371%" x2="99.9996311%" y2="50.0000371%" id="linearGradient-3">
            <stop stop-color="#3B83FE" offset="0%"></stop>
            <stop stop-color="#D786F2" offset="100%"></stop>
        </linearGradient>
        <radialGradient cx="50.000449%" cy="49.9996257%" fx="50.000449%" fy="49.9996257%" r="57.4972215%" gradientTransform="translate(0.500004,0.499996),scale(0.779736,1.000000),translate(-0.500004,-0.499996)" id="radialGradient-4">
            <stop stop-color="#F0F1F1" offset="0%"></stop>
            <stop stop-color="#F0F1F1" stop-opacity="0" offset="47.49%"></stop>
            <stop stop-color="#F0F1F1" stop-opacity="0.6" offset="100%"></stop>
        </radialGradient>
        <radialGradient cx="50.0002707%" cy="49.9995058%" fx="50.0002707%" fy="49.9995058%" r="75.2241773%" gradientTransform="translate(0.500003,0.499995),scale(1.000000,0.532473),translate(-0.500003,-0.499995)" id="radialGradient-5">
            <stop stop-color="#F0F1F1" offset="0%"></stop>
            <stop stop-color="#F0F1F1" stop-opacity="0" offset="47.49%"></stop>
            <stop stop-color="#F0F1F1" stop-opacity="0.6" offset="100%"></stop>
        </radialGradient>
        <radialGradient cx="50.0005099%" cy="49.9998631%" fx="50.0005099%" fy="49.9998631%" r="51.6310882%" gradientTransform="translate(0.500005,0.499999),scale(1.000000,0.939633),translate(-0.500005,-0.499999)" id="radialGradient-6">
            <stop stop-color="#F0F1F1" stop-opacity="0.6" offset="0%"></stop>
            <stop stop-color="#F0F1F1" stop-opacity="0" offset="52.51%"></stop>
            <stop stop-color="#F0F1F1" offset="100%"></stop>
        </radialGradient>
    </defs>
    <g id="wordmark-white" stroke="none" stroke-width="1" fill="none" fill-rule="evenodd">
        <g id="VulcanAIO-Vector-01" transform="translate(-0.000000, 0.000000)" fill-rule="nonzero">
            <g id="Group" transform="translate(60.034949, 12.190572)" fill="#F9F9F9">
                <polygon id="Path" points="7.7390043 20.2941707 0 1.35285452 5.16790428 1.35285452 9.79534317 13.1504224 14.3686679 1.35285452 19.5365722 1.35285452 11.824625 20.2941707"></polygon>
                <path d="M19.6177434,6.22380723 L24.3534107,6.22380723 L24.3534107,14.098097 C24.3534107,15.3697802 25.2192376,16.2626642 26.3285783,16.2626642 C27.437919,16.2626642 28.3037459,15.3156661 28.3037459,14.098097 L28.3037459,6.22380723 L33.0387367,6.22380723 L33.0387367,20.2948471 L28.3037459,20.2948471 L28.3037459,19.1584493 C27.4108619,20.1325046 26.247407,20.6195322 24.8127048,20.6195322 C23.378679,20.6195322 22.1340529,20.1054475 21.1329405,19.0772781 C20.1318282,18.0491086 19.6177434,16.7774254 19.6177434,15.288609 L19.6177434,6.22380723 Z" id="Path"></path>
                <polygon id="Path" points="34.9604666 20.2941707 34.9604666 0 39.6961338 0 39.6961338 20.2948471 34.9604666 20.2948471"></polygon>
                <path d="M51.3584163,12.3657668 C50.9525599,11.2834831 50.0326188,10.5529417 48.8421068,10.5529417 C47.3539669,10.5529417 46.2175691,11.7163966 46.2175691,13.2045366 C46.2175691,14.7467907 47.3539669,15.9643598 48.8421068,15.9643598 C50.0326188,15.9643598 50.9525599,15.2338184 51.3584163,14.1515347 L56.1211406,15.5585034 C55.6070559,17.0737005 54.6871148,18.2912696 53.3613174,19.2382677 C52.062577,20.1582088 50.54738,20.6181794 48.8421068,20.6181794 C46.6775396,20.6181794 44.8640381,19.914695 43.4300123,18.5077263 C41.9959865,17.1007576 41.2654451,15.3420467 41.2654451,13.2579743 C41.2654451,11.1745784 41.9959865,9.41586748 43.4300123,8.00822235 C44.8640381,6.60125365 46.6768632,5.89776929 48.8421068,5.89776929 C50.54738,5.89776929 52.062577,6.35773983 53.3613174,7.304738 C54.6871148,8.22467907 55.6070559,9.44224814 56.1211406,10.9574452 L51.3584163,12.3657668 Z" id="Path"></path>
                <path d="M67.0265009,7.00846286 L67.0265009,6.22380723 L71.7621682,6.22380723 L71.7621682,20.2948471 L67.0265009,20.2948471 L67.0265009,19.5101915 C65.9712744,20.2407329 64.8078195,20.6195322 63.5361362,20.6195322 C61.6962541,20.6195322 60.1533235,19.9160479 58.9086974,18.5090792 C57.6911283,17.1021105 57.0688152,15.3433996 57.0688152,13.2593272 C57.0688152,11.1759312 57.6911283,9.41722033 58.9086974,8.0095752 C60.1533235,6.6026065 61.6955777,5.89912125 63.5361362,5.89912125 C64.8071431,5.89844572 65.9712744,6.27792141 67.0265009,7.00846286 Z M64.482458,10.5529417 C63.1025464,10.5529417 62.0202628,11.7163966 62.0202628,13.2315937 C62.0202628,14.7467907 63.1025464,15.9643598 64.482458,15.9643598 C65.8623696,15.9643598 66.9723867,14.7738478 66.9723867,13.2315937 C66.9723867,11.7163966 65.8623696,10.5529417 64.482458,10.5529417 Z" id="Shape"></path>
                <path d="M73.6825452,6.22380723 L78.4182124,6.22380723 L78.4182124,7.36020503 C79.3110964,6.38614978 80.4745513,5.89912215 81.9085771,5.89912215 C83.3432793,5.89912215 84.5872291,6.41320687 85.5883414,7.4413763 C86.5894537,8.46954574 87.1035385,9.74122899 87.1035385,11.2300454 L87.1035385,20.2948471 L82.3685476,20.2948471 L82.3685476,12.3928239 C82.3685476,11.1752548 81.5297778,10.2553137 80.4204371,10.2553137 C79.2569822,10.2553137 78.4182124,11.1752548 78.4182124,12.3928239 L78.4182124,20.2941707 L73.6825452,20.2941707 L73.6825452,6.22380723 Z" id="Path"></path>
            </g>
            <g id="Group">
                <polygon id="Path" fill="url(#linearGradient-1)" points="35.7221237 0.0493791901 35.7187415 18.2635361 23.810916 30.2484743 11.8023029 18.008523 11.8023029 10.3547485 17.7007486 10.3547485 17.7007486 10.377747 18.8932898 10.377747 21.6801702 13.2106244 23.9631122 15.5300935 17.7007486 15.5300935 17.7007486 16.3654812 23.810916 22.574407 29.8175901 16.3749511 29.8209723 5.15234645 5.90115143 5.14896431 5.90115143 12.1371344 2.89240297 9.14529658 0 6.26912786 0 -4.80630477e-16"></polygon>
                <polygon id="Path" fill="url(#linearGradient-2)" points="27.8593332 40.9279079 25.987659 42.8597841 23.9130565 45 19.403316 40.4172053 0 20.6925864 0 13.2106244 19.5859514 32.697141 23.8799116 37.0607732 23.9265851 37.0147762"></polygon>
                <polygon id="Path" fill="url(#linearGradient-3)" points="47.5217208 0.95105673 47.5183387 20.639825 31.2854373 37.3922226 29.2710369 35.3913508 27.349307 33.4790909 41.6171873 18.7539458 41.6239515 4.45292066 44.8410396 2.54133722"></polygon>
            </g>
            <g id="Group" opacity="0.65" transform="translate(0.000000, 2.541337)">
                <polygon id="Path" fill="url(#radialGradient-4)" opacity="0.76" points="33.0218261 0.0229985269 33.0218261 14.2509695 23.7608604 23.5159937 14.6385624 14.688618 14.5661846 10.6692872 21.6801702 10.6692872 23.9631122 12.9887563 17.7007486 12.9887563 17.7007486 13.8241439 23.810916 20.0330698 29.8175901 13.8336139 29.8209723 2.61100923 5.90115143 2.60762709 5.90115143 9.59579713 2.89240297 6.60395935 2.89240297 0.0229985269"></polygon>
                <polygon id="Path" fill="url(#radialGradient-5)" opacity="0.76" points="44.8410396 0 44.8410396 16.6299642 29.2710369 32.8500135 27.349307 30.9377537 41.6171873 16.2126086 41.6239515 1.91158344"></polygon>
                <polygon id="Path" fill="url(#radialGradient-6)" opacity="0.4" points="27.8593332 38.3865707 25.987659 40.3184469 0 14.9936867 0 10.6692872 19.5859514 30.1558037 23.8799116 34.519436 23.9265851 34.473439"></polygon>
            </g>
        </g>
    </g>
</svg>